<svg width="240" height="240" viewBox="0 0 240 240" fill="none" xmlns="http://www.w3.org/2000/svg">
<g filter="url(#filter0_d)">
<path fill-rule="evenodd" clip-rule="evenodd" d="M115 186C152.555 186 183 155.555 183 118C183 80.4446 152.555 50 115 50C77.4446 50 47 80.4446 47 118C47 155.555 77.4446 186 115 186Z" stroke="url(#paint0_linear)" stroke-width="4"/>
</g>
<path d="M103 118H98.9998V122H103V118Z" fill="url(#paint1_linear)"/>
<path d="M111 118H107V122H111V118Z" fill="url(#paint2_linear)"/>
<path d="M111 106H107V102H103V106H98.9998V110H103V114H107V110H111V106Z" fill="url(#paint3_linear)"/>
<path d="M119 118H115V122H119V118Z" fill="url(#paint4_linear)"/>
<path d="M119 110H115V114H119V110Z" fill="url(#paint5_linear)"/>
<path d="M119 102H115V106H119V102Z" fill="url(#paint6_linear)"/>
<path d="M103 126H98.9998V130H103V126Z" fill="url(#paint7_linear)"/>
<path d="M111 126H107V130H111V126Z" fill="url(#paint8_linear)"/>
<path d="M119 126H115V130H119V126Z" fill="url(#paint9_linear)"/>
<path d="M127 106V94H91V142H107V138H111V142H139V106H127ZM115 138V134H103V138H95.0002V98.0002H123V138L115 138ZM135 138H127V134H131V130H127V126H131V122H127V118H131V114H127V110H135V138Z" fill="url(#paint10_linear)"/>
<defs>
<filter id="filter0_d" x="0" y="0" width="240" height="240" filterUnits="userSpaceOnUse" color-interpolation-filters="sRGB">
<feFlood flood-opacity="0" result="BackgroundImageFix"/>
<feColorMatrix in="SourceAlpha" type="matrix" values="0 0 0 0 0 0 0 0 0 0 0 0 0 0 0 0 0 0 127 0"/>
<feOffset dx="5" dy="2"/>
<feGaussianBlur stdDeviation="25"/>
<feColorMatrix type="matrix" values="0 0 0 0 0 0 0 0 0 0 0 0 0 0 0 0 0 0 0.08 0"/>
<feBlend mode="normal" in2="BackgroundImageFix" result="effect1_dropShadow"/>
<feBlend mode="normal" in="SourceGraphic" in2="effect1_dropShadow" result="shape"/>
</filter>
<linearGradient id="paint0_linear" x1="-21.68" y1="119.36" x2="117.04" y2="256.72" gradientUnits="userSpaceOnUse">
<stop stop-color="#3023AE"/>
<stop offset="1" stop-color="#C86DD7"/>
</linearGradient>
<linearGradient id="paint1_linear" x1="66.76" y1="118.48" x2="115.72" y2="166.96" gradientUnits="userSpaceOnUse">
<stop stop-color="#3023AE"/>
<stop offset="1" stop-color="#C86DD7"/>
</linearGradient>
<linearGradient id="paint2_linear" x1="66.76" y1="118.48" x2="115.72" y2="166.96" gradientUnits="userSpaceOnUse">
<stop stop-color="#3023AE"/>
<stop offset="1" stop-color="#C86DD7"/>
</linearGradient>
<linearGradient id="paint3_linear" x1="66.76" y1="118.48" x2="115.72" y2="166.96" gradientUnits="userSpaceOnUse">
<stop stop-color="#3023AE"/>
<stop offset="1" stop-color="#C86DD7"/>
</linearGradient>
<linearGradient id="paint4_linear" x1="66.76" y1="118.48" x2="115.72" y2="166.96" gradientUnits="userSpaceOnUse">
<stop stop-color="#3023AE"/>
<stop offset="1" stop-color="#C86DD7"/>
</linearGradient>
<linearGradient id="paint5_linear" x1="66.76" y1="118.48" x2="115.72" y2="166.96" gradientUnits="userSpaceOnUse">
<stop stop-color="#3023AE"/>
<stop offset="1" stop-color="#C86DD7"/>
</linearGradient>
<linearGradient id="paint6_linear" x1="66.76" y1="118.48" x2="115.72" y2="166.96" gradientUnits="userSpaceOnUse">
<stop stop-color="#3023AE"/>
<stop offset="1" stop-color="#C86DD7"/>
</linearGradient>
<linearGradient id="paint7_linear" x1="66.76" y1="118.48" x2="115.72" y2="166.96" gradientUnits="userSpaceOnUse">
<stop stop-color="#3023AE"/>
<stop offset="1" stop-color="#C86DD7"/>
</linearGradient>
<linearGradient id="paint8_linear" x1="66.76" y1="118.48" x2="115.72" y2="166.96" gradientUnits="userSpaceOnUse">
<stop stop-color="#3023AE"/>
<stop offset="1" stop-color="#C86DD7"/>
</linearGradient>
<linearGradient id="paint9_linear" x1="66.76" y1="118.48" x2="115.72" y2="166.96" gradientUnits="userSpaceOnUse">
<stop stop-color="#3023AE"/>
<stop offset="1" stop-color="#C86DD7"/>
</linearGradient>
<linearGradient id="paint10_linear" x1="66.76" y1="118.48" x2="115.72" y2="166.96" gradientUnits="userSpaceOnUse">
<stop stop-color="#3023AE"/>
<stop offset="1" stop-color="#C86DD7"/>
</linearGradient>
</defs>
</svg>
