<svg width="240" height="240" viewBox="0 0 240 240" fill="none" xmlns="http://www.w3.org/2000/svg">
<g filter="url(#filter0_d)">
<path fill-rule="evenodd" clip-rule="evenodd" d="M115 186C152.555 186 183 155.555 183 118C183 80.4446 152.555 50 115 50C77.4446 50 47 80.4446 47 118C47 155.555 77.4446 186 115 186Z" stroke="url(#paint0_linear)" stroke-width="4"/>
</g>
<path d="M103 130H98.9998V134H103V130Z" fill="url(#paint1_linear)"/>
<path d="M103 122H98.9998V126H103V122Z" fill="url(#paint2_linear)"/>
<path d="M103 114H98.9998V118H103V114Z" fill="url(#paint3_linear)"/>
<path d="M121 130H115V134H121V130Z" fill="url(#paint4_linear)"/>
<path d="M131 130H125V134H131V130Z" fill="url(#paint5_linear)"/>
<path d="M121 122H115V126H121V122Z" fill="url(#paint6_linear)"/>
<path d="M131 122H125V126H131V122Z" fill="url(#paint7_linear)"/>
<path d="M121 114H115V118H121V114Z" fill="url(#paint8_linear)"/>
<path d="M131 114H125V118H131V114Z" fill="url(#paint9_linear)"/>
<path d="M131 106H125V110H131V106Z" fill="url(#paint10_linear)"/>
<path d="M121 106H115V110H121V106Z" fill="url(#paint11_linear)"/>
<path d="M107 94V104.75L91 107.75V142H139V100L107 94ZM95.0002 138V111.07L107 108.82V138H95.0002ZM111 138V98.8204L135 103.32V138H111Z" fill="url(#paint12_linear)"/>
<defs>
<filter id="filter0_d" x="0" y="0" width="240" height="240" filterUnits="userSpaceOnUse" color-interpolation-filters="sRGB">
<feFlood flood-opacity="0" result="BackgroundImageFix"/>
<feColorMatrix in="SourceAlpha" type="matrix" values="0 0 0 0 0 0 0 0 0 0 0 0 0 0 0 0 0 0 127 0"/>
<feOffset dx="5" dy="2"/>
<feGaussianBlur stdDeviation="25"/>
<feColorMatrix type="matrix" values="0 0 0 0 0 0 0 0 0 0 0 0 0 0 0 0 0 0 0.08 0"/>
<feBlend mode="normal" in2="BackgroundImageFix" result="effect1_dropShadow"/>
<feBlend mode="normal" in="SourceGraphic" in2="effect1_dropShadow" result="shape"/>
</filter>
<linearGradient id="paint0_linear" x1="-21.68" y1="119.36" x2="117.04" y2="256.72" gradientUnits="userSpaceOnUse">
<stop stop-color="#3023AE"/>
<stop offset="1" stop-color="#C86DD7"/>
</linearGradient>
<linearGradient id="paint1_linear" x1="66.76" y1="118.48" x2="115.72" y2="166.96" gradientUnits="userSpaceOnUse">
<stop stop-color="#3023AE"/>
<stop offset="1" stop-color="#C86DD7"/>
</linearGradient>
<linearGradient id="paint2_linear" x1="66.76" y1="118.48" x2="115.72" y2="166.96" gradientUnits="userSpaceOnUse">
<stop stop-color="#3023AE"/>
<stop offset="1" stop-color="#C86DD7"/>
</linearGradient>
<linearGradient id="paint3_linear" x1="66.76" y1="118.48" x2="115.72" y2="166.96" gradientUnits="userSpaceOnUse">
<stop stop-color="#3023AE"/>
<stop offset="1" stop-color="#C86DD7"/>
</linearGradient>
<linearGradient id="paint4_linear" x1="66.76" y1="118.48" x2="115.72" y2="166.96" gradientUnits="userSpaceOnUse">
<stop stop-color="#3023AE"/>
<stop offset="1" stop-color="#C86DD7"/>
</linearGradient>
<linearGradient id="paint5_linear" x1="66.76" y1="118.48" x2="115.72" y2="166.96" gradientUnits="userSpaceOnUse">
<stop stop-color="#3023AE"/>
<stop offset="1" stop-color="#C86DD7"/>
</linearGradient>
<linearGradient id="paint6_linear" x1="66.76" y1="118.48" x2="115.72" y2="166.96" gradientUnits="userSpaceOnUse">
<stop stop-color="#3023AE"/>
<stop offset="1" stop-color="#C86DD7"/>
</linearGradient>
<linearGradient id="paint7_linear" x1="66.76" y1="118.48" x2="115.72" y2="166.96" gradientUnits="userSpaceOnUse">
<stop stop-color="#3023AE"/>
<stop offset="1" stop-color="#C86DD7"/>
</linearGradient>
<linearGradient id="paint8_linear" x1="66.76" y1="118.48" x2="115.72" y2="166.96" gradientUnits="userSpaceOnUse">
<stop stop-color="#3023AE"/>
<stop offset="1" stop-color="#C86DD7"/>
</linearGradient>
<linearGradient id="paint9_linear" x1="66.76" y1="118.48" x2="115.72" y2="166.96" gradientUnits="userSpaceOnUse">
<stop stop-color="#3023AE"/>
<stop offset="1" stop-color="#C86DD7"/>
</linearGradient>
<linearGradient id="paint10_linear" x1="66.76" y1="118.48" x2="115.72" y2="166.96" gradientUnits="userSpaceOnUse">
<stop stop-color="#3023AE"/>
<stop offset="1" stop-color="#C86DD7"/>
</linearGradient>
<linearGradient id="paint11_linear" x1="66.76" y1="118.48" x2="115.72" y2="166.96" gradientUnits="userSpaceOnUse">
<stop stop-color="#3023AE"/>
<stop offset="1" stop-color="#C86DD7"/>
</linearGradient>
<linearGradient id="paint12_linear" x1="66.76" y1="118.48" x2="115.72" y2="166.96" gradientUnits="userSpaceOnUse">
<stop stop-color="#3023AE"/>
<stop offset="1" stop-color="#C86DD7"/>
</linearGradient>
</defs>
</svg>
