<svg width="240" height="240" viewBox="0 0 240 240" fill="none" xmlns="http://www.w3.org/2000/svg">
<g filter="url(#filter0_d)">
<path fill-rule="evenodd" clip-rule="evenodd" d="M115 186C152.555 186 183 155.555 183 118C183 80.4446 152.555 50 115 50C77.4446 50 47 80.4446 47 118C47 155.555 77.4446 186 115 186Z" stroke="url(#paint0_linear)" stroke-width="4"/>
</g>
<path d="M107 106C102.582 106 98.9998 109.582 98.9998 114C98.9998 118.418 102.582 122 107 122C111.418 122 115 118.418 115 114C115 109.582 111.418 106 107 106ZM107 118C104.791 118 103 116.209 103 114C103 111.791 104.791 110 107 110C109.209 110 111 111.791 111 114C111 116.209 109.209 118 107 118Z" fill="url(#paint1_linear)"/>
<path d="M115 126H98.9998C94.582 126 91 129.582 91 134V142H123V134C123 129.584 119.418 126 115 126ZM119 138H95.0002V134C95.0002 131.791 96.7906 130 98.9998 130H115C117.209 130 119 131.791 119 134V138Z" fill="url(#paint2_linear)"/>
<path d="M123 94C118.582 94 115 97.582 115 102C115 106.418 118.582 110 123 110C127.418 110 131 106.418 131 102C131 97.582 127.418 94 123 94ZM123 106C120.791 106 119 104.209 119 102C119 99.7906 120.791 97.9996 123 97.9996C125.209 97.9996 127 99.7912 127 102C127 104.208 125.209 106 123 106Z" fill="url(#paint3_linear)"/>
<path d="M131 114H119V118H131C133.209 118 135 119.79 135 122V126H125V130H139V122C139 117.584 135.418 114 131 114Z" fill="url(#paint4_linear)"/>
<defs>
<filter id="filter0_d" x="0" y="0" width="240" height="240" filterUnits="userSpaceOnUse" color-interpolation-filters="sRGB">
<feFlood flood-opacity="0" result="BackgroundImageFix"/>
<feColorMatrix in="SourceAlpha" type="matrix" values="0 0 0 0 0 0 0 0 0 0 0 0 0 0 0 0 0 0 127 0"/>
<feOffset dx="5" dy="2"/>
<feGaussianBlur stdDeviation="25"/>
<feColorMatrix type="matrix" values="0 0 0 0 0 0 0 0 0 0 0 0 0 0 0 0 0 0 0.08 0"/>
<feBlend mode="normal" in2="BackgroundImageFix" result="effect1_dropShadow"/>
<feBlend mode="normal" in="SourceGraphic" in2="effect1_dropShadow" result="shape"/>
</filter>
<linearGradient id="paint0_linear" x1="-21.68" y1="119.36" x2="117.04" y2="256.72" gradientUnits="userSpaceOnUse">
<stop stop-color="#3023AE"/>
<stop offset="1" stop-color="#C86DD7"/>
</linearGradient>
<linearGradient id="paint1_linear" x1="66.76" y1="118.48" x2="115.72" y2="166.96" gradientUnits="userSpaceOnUse">
<stop stop-color="#3023AE"/>
<stop offset="1" stop-color="#C86DD7"/>
</linearGradient>
<linearGradient id="paint2_linear" x1="66.76" y1="118.48" x2="115.72" y2="166.96" gradientUnits="userSpaceOnUse">
<stop stop-color="#3023AE"/>
<stop offset="1" stop-color="#C86DD7"/>
</linearGradient>
<linearGradient id="paint3_linear" x1="66.76" y1="118.48" x2="115.72" y2="166.96" gradientUnits="userSpaceOnUse">
<stop stop-color="#3023AE"/>
<stop offset="1" stop-color="#C86DD7"/>
</linearGradient>
<linearGradient id="paint4_linear" x1="66.76" y1="118.48" x2="115.72" y2="166.96" gradientUnits="userSpaceOnUse">
<stop stop-color="#3023AE"/>
<stop offset="1" stop-color="#C86DD7"/>
</linearGradient>
</defs>
</svg>
