<svg width="144" height="52" viewBox="0 0 144 52" fill="none" xmlns="http://www.w3.org/2000/svg">
<rect x="2" y="2" width="140" height="48" stroke="url(#paint0_linear)" stroke-width="4"/>
<path d="M17.9999 27.6468V19.5664C17.9996 19.5184 18.0087 19.4708 18.027 19.4263C18.0452 19.3819 18.0721 19.3414 18.1061 19.3073C18.1398 19.2698 18.1815 19.2403 18.2281 19.2207C18.2747 19.2011 18.3251 19.1919 18.3756 19.1939H20.2378C20.2863 19.1931 20.3344 19.202 20.3793 19.2201C20.4243 19.2382 20.465 19.2651 20.4992 19.2992C20.5346 19.334 20.5623 19.3757 20.5806 19.4217C20.5989 19.4677 20.6073 19.517 20.6053 19.5664V27.5172C20.5879 28.2981 20.8813 29.0543 21.4221 29.6223C21.6859 29.8943 22.0052 30.1072 22.3588 30.2469C22.7123 30.3865 23.0919 30.4496 23.4721 30.432C23.8534 30.4487 24.2339 30.3852 24.5886 30.2456C24.9434 30.1061 25.2643 29.8937 25.5303 29.6223C26.0708 29.0607 26.3645 28.3095 26.347 27.5334V19.5664C26.3459 19.5172 26.3549 19.4682 26.3733 19.4225C26.3918 19.3769 26.4195 19.3354 26.4546 19.3006C26.4897 19.2657 26.5315 19.2384 26.5776 19.22C26.6237 19.2017 26.6731 19.1928 26.7227 19.1939H28.5849C28.6326 19.1952 28.6795 19.2059 28.723 19.2254C28.7664 19.2448 28.8056 19.2727 28.8381 19.3073C28.8733 19.3392 28.9017 19.3779 28.9213 19.4211C28.941 19.4643 28.9516 19.5109 28.9524 19.5583V27.6549C28.9658 28.3598 28.8328 29.06 28.5616 29.7119C28.2905 30.3638 27.8869 30.9534 27.3761 31.4441C26.8688 31.9516 26.2623 32.3512 25.5939 32.6185C24.9254 32.8858 24.209 33.0151 23.4884 32.9986C22.7704 33.0143 22.0567 32.8846 21.391 32.6173C20.7253 32.35 20.1217 31.9507 19.6171 31.4441C19.0979 30.9559 18.6862 30.3666 18.4079 29.7131C18.1295 29.0596 17.9907 28.3561 17.9999 27.6468Z" fill="white"/>
<path d="M41.9714 32.4237V21.5258H38.9739C38.9243 21.5269 38.8749 21.518 38.8289 21.4997C38.7828 21.4813 38.7409 21.4539 38.7058 21.4191C38.6707 21.3843 38.643 21.3428 38.6246 21.2971C38.6061 21.2515 38.5971 21.2025 38.5982 21.1533V19.5664C38.5971 19.5172 38.6061 19.4682 38.6246 19.4226C38.643 19.3769 38.6707 19.3354 38.7058 19.3006C38.7409 19.2658 38.7828 19.2384 38.8289 19.22C38.8749 19.2017 38.9243 19.1928 38.9739 19.1939H47.5415C47.5912 19.1928 47.6405 19.2017 47.6866 19.22C47.7327 19.2384 47.7746 19.2658 47.8097 19.3006C47.8448 19.3354 47.8724 19.3769 47.8909 19.4226C47.9094 19.4682 47.9183 19.5172 47.9172 19.5664V21.1857C47.9183 21.2349 47.9094 21.2838 47.8909 21.3295C47.8724 21.3752 47.8448 21.4167 47.8097 21.4515C47.7746 21.4863 47.7327 21.5137 47.6866 21.532C47.6405 21.5504 47.5912 21.5592 47.5415 21.5581H44.5441V32.4237C44.5284 32.5195 44.4786 32.6066 44.4036 32.669C44.3287 32.7314 44.2336 32.7651 44.1357 32.7638H42.3471C42.2979 32.7646 42.249 32.7549 42.2039 32.7353C42.1588 32.7158 42.1185 32.6868 42.0857 32.6505C42.0215 32.5909 41.9809 32.5104 41.9714 32.4237Z" fill="white"/>
<path d="M58.8369 30.9583C58.1722 30.3164 57.6473 29.5462 57.2947 28.6954C56.9421 27.8445 56.7693 26.931 56.7869 26.0113C56.7709 25.0894 56.9444 24.1739 57.2969 23.3206C57.6493 22.4673 58.1733 21.6941 58.8369 21.0481C60.1617 19.7354 61.9581 18.998 63.8312 18.998C65.7043 18.998 67.5008 19.7354 68.8256 21.0481C69.4914 21.6928 70.0174 22.4657 70.3713 23.3191C70.7253 24.1725 70.8996 25.0886 70.8838 26.0113C70.9013 26.9317 70.7276 27.8458 70.3735 28.6969C70.0194 29.5479 69.4925 30.3177 68.8256 30.9583C67.4945 32.2592 65.7004 32.9885 63.8312 32.9885C61.962 32.9885 60.1679 32.2592 58.8369 30.9583ZM60.6582 22.8617C60.2325 23.2727 59.8956 23.7654 59.6681 24.3096C59.4406 24.8539 59.3273 25.4384 59.3351 26.0274C59.3257 26.6144 59.4383 27.1969 59.666 27.7388C59.8936 28.2806 60.2314 28.7702 60.6582 29.177C61.0748 29.5917 61.5699 29.9208 62.1151 30.1453C62.6604 30.3698 63.2449 30.4854 63.8353 30.4854C64.4257 30.4854 65.0103 30.3698 65.5555 30.1453C66.1007 29.9208 66.5958 29.5917 67.0124 29.177C67.4379 28.7708 67.7748 28.2825 68.0024 27.7422C68.2299 27.2019 68.3433 26.621 68.3355 26.0355C68.3466 25.4417 68.2341 24.8519 68.005 24.3031C67.776 23.7542 67.4353 23.2581 67.0043 22.8455C66.5913 22.4274 66.0983 22.0951 65.5541 21.8684C65.01 21.6416 64.4256 21.5247 63.8353 21.5247C63.245 21.5247 62.6607 21.6416 62.1165 21.8684C61.5723 22.0951 61.0793 22.4274 60.6664 22.8455L60.6582 22.8617Z" fill="white"/>
<path d="M81.3135 32.4237V19.5664C81.3127 19.5183 81.3217 19.4706 81.3399 19.4261C81.3581 19.3815 81.3853 19.3411 81.4197 19.3073C81.4559 19.2686 81.5003 19.2383 81.5498 19.2187C81.5992 19.1991 81.6524 19.1906 81.7056 19.1939H86.312C86.8845 19.1887 87.4521 19.2979 87.9812 19.5149C88.5102 19.7319 88.9897 20.0523 89.3911 20.457C89.8065 20.8456 90.1364 21.3153 90.3598 21.8364C90.5833 22.3575 90.6956 22.9189 90.6897 23.4851C90.6994 24.06 90.5907 24.6308 90.3702 25.1626C90.1498 25.6944 89.8221 26.176 89.4074 26.578C89.0091 26.9901 88.5294 27.3163 87.9982 27.5364C87.467 27.7565 86.8958 27.8657 86.3201 27.8573H83.8699V32.4237C83.8686 32.5179 83.8305 32.6078 83.7637 32.6747C83.7309 32.7111 83.6906 32.7401 83.6455 32.7596C83.6004 32.7792 83.5516 32.7889 83.5024 32.7881H81.7056C81.6559 32.7892 81.6066 32.7803 81.5605 32.762C81.5144 32.7437 81.4725 32.7163 81.4374 32.6815C81.4023 32.6467 81.3747 32.6052 81.3562 32.5595C81.3377 32.5138 81.3288 32.4649 81.3299 32.4156L81.3135 32.4237ZM83.8618 25.4769H86.1323C86.399 25.4758 86.6628 25.4226 86.9087 25.3202C87.1546 25.2178 87.3776 25.0682 87.5651 24.8802C87.7525 24.6921 87.9006 24.4692 88.0009 24.2242C88.1013 23.9793 88.1518 23.7171 88.1496 23.4527C88.1545 23.1992 88.1036 22.9478 88.0007 22.7157C87.8977 22.4836 87.7451 22.2765 87.5534 22.1087C87.1685 21.7522 86.659 21.5578 86.1323 21.5662H83.8618V25.4769Z" fill="white"/>
<path d="M100.76 32.4238V19.5664C100.762 19.4723 100.8 19.3823 100.866 19.3154C100.899 19.279 100.94 19.2501 100.985 19.2305C101.03 19.2109 101.079 19.2012 101.128 19.202H102.941C102.989 19.2029 103.036 19.2134 103.079 19.2328C103.123 19.2523 103.162 19.2804 103.194 19.3154C103.229 19.3473 103.258 19.386 103.277 19.4292C103.297 19.4724 103.308 19.519 103.308 19.5664V32.4238C103.294 32.513 103.25 32.5949 103.184 32.6565C103.117 32.7181 103.032 32.7559 102.941 32.7638H101.12C101.07 32.7646 101.022 32.7549 100.976 32.7353C100.931 32.7158 100.891 32.6868 100.858 32.6505C100.8 32.5885 100.765 32.5083 100.76 32.4238Z" fill="white"/>
<path d="M113.281 32.7638C113.218 32.7683 113.154 32.7564 113.097 32.7295C113.04 32.7025 112.99 32.6614 112.954 32.61C112.921 32.558 112.903 32.4976 112.903 32.4359C112.903 32.3742 112.921 32.3138 112.954 32.2618L119.047 19.2101C119.074 19.145 119.121 19.0898 119.181 19.0521C119.241 19.0143 119.311 18.996 119.382 18.9996H119.578C119.649 18.996 119.719 19.0143 119.779 19.0521C119.839 19.0898 119.886 19.145 119.913 19.2101L125.948 32.2861C125.982 32.3381 126 32.3985 126 32.4602C126 32.5219 125.982 32.5822 125.948 32.6343C125.912 32.6856 125.863 32.7268 125.805 32.7538C125.748 32.7807 125.685 32.7925 125.622 32.7881H123.915C123.791 32.7881 123.67 32.751 123.568 32.6817C123.466 32.6123 123.387 32.5139 123.343 32.3995L121.424 28.1407H117.479L115.559 32.3995C115.52 32.5174 115.443 32.6193 115.34 32.6895C115.236 32.7597 115.113 32.7943 114.988 32.7881L113.281 32.7638ZM121.448 28.1164L119.455 23.8576H119.398L117.479 28.1488" fill="white"/>
<defs>
<linearGradient id="paint0_linear" x1="-68.7" y1="26.48" x2="-38.4233" y2="113.921" gradientUnits="userSpaceOnUse">
<stop stop-color="#3023AE"/>
<stop offset="1" stop-color="#C86DD7"/>
</linearGradient>
</defs>
</svg>
